DBRep_DrawableShape

CASCADE Topology V1, (c) Matra-Datavision
Locations 51
1
              1               0               0               0 
              0               1               0               0 
              0               0               1               0 
1
              1               0               0               0 
              0               1               0               0 
              0               0               1               0 
1
              1               0               0               0 
              0               1               0               0 
              0               0               1               0 
1
              1               0               0               0 
              0               1               0               0 
              0               0               1               0 
1
              1               0               0               0 
              0               1               0               0 
              0               0               1               0 
2  2 1 3 -1 4 1 5 -1 0
2  1 -1 5 1 4 -1 3 1 2 -1 0
1
              1               0               0               0 
              0               1               0               0 
              0               0               1               0 
1
              1               0               0               0 
              0               1               0               0 
              0               0               1               0 
2  8 1 9 -1 0
2  9 1 8 -1 0
2  8 -1 0
2  1 -1 5 1 4 -1 3 1 2 -1 9 1 8 -1 0
1
              1               0               0               0 
              0               1               0               0 
              0               0               1               5 
2  8 1 9 -1 14 1 0
2  14 -1 9 1 8 -1 0
2  1 -1 5 1 4 -1 3 1 2 -1 14 -1 9 1 8 -1 0
2  4 1 5 -1 0
2  9 -1 2 1 3 -1 0
2  8 1 9 -1 2 1 3 -1 0
2  2 -1 9 1 8 -1 0
2  9 -1 14 1 2 1 3 -1 0
2  8 1 9 -1 14 1 2 1 3 -1 0
2  2 -1 14 -1 9 1 8 -1 0
2  2 1 3 -1 0
1
              1               0               0              -0 
              0 2.22044604925031e-16              -1              -0 
              0               1 2.22044604925031e-16               0 
2  26 1 3 -1 0
2  2 1 26 -1 0
2  3 1 26 -1 0
2  1 -1 5 1 4 -1 3 1 26 -1 0
2  3 -1 0
2  26 -1 0
2  1 -1 5 1 4 -1 0
1
              1               0               0               0 
              0               1               0              -3 
              0               0               1 6.66133814775094e-16 
2  26 1 3 -1 34 1 0
2  34 -1 3 1 26 -1 0
2  1 -1 5 1 4 -1 34 -1 3 1 26 -1 0
2  3 -1 34 1 4 1 5 -1 0
2  26 1 3 -1 34 1 4 1 5 -1 0
1
              1              -0               0              -0 
              0 2.22044604925031e-16              -1              -3 
              0               1 2.22044604925031e-16 6.66133814775094e-16 
2  40 1 5 -1 0
2  3 -1 34 1 4 1 40 -1 0
2  5 1 40 -1 0
2  1 -1 5 1 40 -1 0
2  1 -1 0
1
              1               0               0               0 
              0               1               0               8 
              0               0               1 -1.77635683940025e-15 
2  40 1 5 -1 46 1 0
2  46 -1 5 1 40 -1 0
2  40 -1 0
2  1 -1 46 -1 5 1 40 -1 0
2  5 -1 46 1 0
Curve2ds 52
1 0 0 0 -1 
1 11 0 0 -1 
1 12 0 0 -1 
1 0 0 0 -1 
1 0 0 1 0 
1 0 0 1 0 
1 0 -5 1 0 
1 0 0 1 0 
1 0 0 0 -1 
1 12 0 0 -1 
1 0 0 1 0 
1 0 -11 0 1 
1 0 -5 1 0 
1 0 -11 0 1 
1 11 0 0 -1 
1 0 -0 0 -1 
1 0 0 1 0 
1 12 0 0 -1 
1 0 -5 1 0 
1 12 0 0 -1 
1 12 -11 -1 0 
1 0 -0 1 0 
1 12 -11 -1 0 
1 0 -0 1 0 
1 12 -11 -1 0 
1 -2.5 3 0 -1 
1 12 -11 -1 0 
1 0 -5 1 0 
1 12 -11 -1 0 
1 0 -5 1 0 
1 12 -11 -1 0 
1 2.5 3 0 -1 
2 6 -2.5 -1 -0 0 -1 3
1 0 0 1 0 
2 6 -2.5 -1 -0 0 -1 3
1 0 0 1 0 
2 6 -2.5 -1 -0 0 -1 3
1 0 0 1 0 
2 0 -3 0 1 1 -0 3
1 0 0 1 0 
2 0 -3 0 1 1 -0 3
1 0 0 1 0 
1 0 0 0 -1 
1 6.2831853071795862 0 0 -1 
1 0 -3 1 0 
2 0 -3 0 1 1 -0 3
2 0 -3 0 1 1 -0 1.7999999999999998
1 0 0 1 0 
1 0 0 0 -1 
1 6.2831853071795862 0 0 -1 
1 0 -8 1 0 
2 0 -1.7999999999999998 0 1 1 -0 1.7999999999999998
Curves 26
1 -12 11 0 0 0 1 
1 0 11 0 0 0 1 
1 -12 11 0 1 0 0 
1 -12 11 0 1 0 0 
1 -12 0 0 0 0 1 
1 -12 0 0 0 1 0 
1 -12 0 0 0 1 0 
1 0 0 0 0 0 1 
1 0 11 0 0 -1 0 
1 0 11 0 0 -1 0 
1 0 0 0 -1 0 0 
1 0 0 0 -1 0 0 
1 0 0 0 -1 0 0 
1 0 0 0 -1 0 0 
1 0 0 0 -1 0 0 
1 0 0 0 -1 0 0 
2 -6 2.5 0 0 0 1 1 0 -0 -0 1 0 3
2 -6 2.5 0 0 0 1 1 0 -0 -0 1 0 3
2 -6 2.5 0 0 0 1 1 0 -0 -0 1 0 3
2 -6 2.5 0 0 0 1 1 0 -0 -0 1 0 3
2 -6 2.5 0 0 0 1 1 0 -0 -0 1 0 3
1 -3 5.5511151231257827e-16 2.5 0 -1 2.2204460492503131e-16 
2 -6 2.5 0 0 0 1 1 0 -0 -0 1 0 3
2 -6 2.5 0 0 0 1 1 0 -0 -0 1 0 1.8
1 -4.2000000000000002 -2.9999999999999996 2.5000000000000009 0 1 -2.2204460492503131e-16 
2 -6 2.5 0 0 0 1 1 0 -0 -0 1 0 1.8
Polygon3D 0
PolygonOnTriangulations 0
Surfaces 13
1 -12 11 0 0 1 0 1 0 0 0 0 -1 
1 -12 0 0 -1 0 0 0 1 0 0 0 -1 
1 0 11 0 1 0 -0 0 -1 0 0 -0 -1 
1 -12 11 0 -0 0 1 1 0 0 0 1 -0 
1 -12 11 0 -0 0 1 1 0 0 0 1 -0 
1 0 0 0 0 -1 0 -1 0 0 -0 -0 -1 
1 0 0 0 0 -1 0 -1 0 0 -0 -0 -1 
1 -3 5.5511151231257827e-16 2.5 0 1 -2.2204460492503131e-16 0 2.2204460492503131e-16 1 1 -0 0 
1 -3 5.5511151231257827e-16 2.5 0 1 -2.2204460492503131e-16 0 2.2204460492503131e-16 1 1 -0 0 
2 -6 5.5511151231257827e-16 2.5 -0 1 -2.2204460492503131e-16 1 0 0 0 2.2204460492503131e-16 1 3
1 -3 5.5511151231257827e-16 2.5 0 1 -2.2204460492503131e-16 0 2.2204460492503131e-16 1 1 -0 0 
2 -6 -2.9999999999999996 2.5000000000000009 0 -1 2.2204460492503131e-16 1 0 0 0 2.2204460492503131e-16 1 1.8
1 -4.2000000000000002 -2.9999999999999996 2.5000000000000009 -3.5142674072725541e-32 1 -2.8488336094571317e-16 0 2.8488336094571317e-16 1 1 3.5142674072725541e-32 -1.0011563102457827e-47 
Triangulations 0

TShapes 71
Ve
1e-07
-12 11 0
0 0

0101101
*
Ve
1e-07
-12 11 5
0 0

0101101
*
Ed
 1e-07 1 1 0
1  1 0 0 5
2  1 1 0 0 5
2  2 2 0 0 5
0

0101000
+71 7 -70 7 *
Ve
1e-07
0 11 0
0 0

0101101
*
Ve
1e-07
0 11 5
0 0

0101101
*
Ed
 1e-07 1 1 0
1  2 0 0 5
2  3 1 0 0 5
2  4 3 0 0 5
0

0101000
+68 7 -67 7 *
Ed
 1e-07 1 1 0
1  3 0 0 12
2  5 1 11 0 12
2  6 4 12 0 12
0

0101000
+71 13 -68 13 *
Ed
 1e-07 1 1 0
1  4 0 0 12
2  7 1 16 0 12
2  8 5 12 0 12
0

0101000
+70 17 -67 17 *
Wi

0101000
+69 0 -66 0 -65 10 +64 15 *
Fa
0  1e-07 1 0

0101000
+63 0 *
Ve
1e-07
-12 0 0
0 0

0101101
*
Ve
1e-07
-12 0 5
0 0

0101101
*
Ed
 1e-07 1 1 0
1  5 0 0 5
2  9 2 0 0 5
2  10 6 0 0 5
0

0101000
+61 7 -60 7 *
Ed
 1e-07 1 1 0
1  6 0 0 11
2  11 2 11 0 11
2  12 4 12 0 11
0

0101000
+61 13 -71 13 *
Ed
 1e-07 1 1 0
1  7 0 0 11
2  13 2 16 0 11
2  14 5 12 0 11
0

0101000
+60 17 -70 17 *
Wi

0101000
+59 0 -69 0 -58 10 +57 15 *
Fa
0  1e-07 2 0

0101000
+56 0 *
Ve
1e-07
0 0 0
0 0

0101101
*
Ve
1e-07
0 0 5
0 0

0101101
*
Ed
 1e-07 1 1 0
1  8 0 0 5
2  15 3 0 0 5
2  16 7 0 0 5
0

0101000
+54 7 -53 7 *
Ed
 1e-07 1 1 0
1  9 0 0 11
2  17 3 11 0 11
2  18 4 12 0 11
0

0101000
+68 13 -54 13 *
Ed
 1e-07 1 1 0
1  10 0 0 11
2  19 3 16 0 11
2  20 5 12 0 11
0

0101000
+67 17 -53 17 *
Wi

0101000
+66 0 -52 0 -51 10 +50 15 *
Fa
0  1e-07 3 0

0101000
+49 0 *
Ve
1.00000084373444e-07
-7.65831239517744 -1.56786104912676e-29 -7.061018436616e-14
0 0

0101101
*
Ed
 1e-07 1 1 0
1  11 0 7.65831239517744 12
2  21 4 12 7.65831239517744 12
2  22 6 11 7.65831239517744 12
0

0101000
+47 13 -61 13 *
Ve
1.00000084309433e-07
-4.34168760482204 1.55306990715387e-29 6.99440505513849e-14
0 0

0101101
*
Ed
 1e-07 1 1 0
1  12 0 0 4.34168760482204
2  23 4 12 0 4.34168760482204
2  24 7 11 0 4.34168760482204
0

0101000
+54 13 -45 13 *
Ed
 1e-07 1 1 0
1  13 0 4.34168760482204 7.65831239517744
2  25 4 12 4.34168760482204 7.65831239517744
2  26 8 21 4.34168760482204 7.65831239517744
0

0101000
+45 13 -47 13 *
Wi

0101000
-65 20 -58 20 -51 20 -46 20 -44 20 -43 20 *
Fa
0  1e-07 4 19

0101000
+42 0 *
Ve
1.00000000555112e-07
-7.6583123951777 5.55111512312578e-16 5
0 0

0101101
*
Ed
 1e-07 1 1 0
1  14 0 7.6583123951777 12
2  27 5 12 7.6583123951777 12
2  28 6 16 7.6583123951777 12
0

0101000
+40 17 -60 17 *
Ve
1.00000000555112e-07
-4.3416876048223 5.55111512312578e-16 5
0 0

0101101
*
Ed
 1e-07 1 1 0
1  15 0 0 4.3416876048223
2  29 5 12 0 4.3416876048223
2  30 7 16 0 4.3416876048223
0

0101000
+53 17 -38 17 *
Ed
 1e-07 1 1 0
1  16 0 4.3416876048223 7.6583123951777
2  31 5 12 4.3416876048223 7.6583123951777
2  32 9 24 4.3416876048223 7.6583123951777
0

0101000
+38 17 -40 17 *
Wi

0101000
-64 23 -57 23 -50 23 -39 23 -37 23 -36 23 *
Fa
0  1e-07 5 22

0101000
+35 0 *
Ed
 1e-07 1 1 0
1  17 0 2.15648187025205 4.12670343692762
2  33 6 28 2.15648187025205 4.12670343692762
2  34 10 29 2.15648187025205 4.12670343692762
0

0101000
+40 30 -47 30 *
Wi

0101000
-46 20 -59 25 +39 23 -33 27 *
Fa
0  1e-07 6 25

0101000
+32 0 *
Ve
1e-07
-3 5.55111512312578e-16 2.5
0 0

0101101
*
Ed
 1e-07 1 1 0
1  18 0 5.29807452384193 6.28318530717959
2  35 7 28 5.29807452384193 6.28318530717959
2  36 10 29 5.29807452384193 6.28318530717959
0

0101000
+45 30 -30 30 *
Ed
 1e-07 1 1 0
1  19 0 0 0.985110783337746
2  37 7 28 0 0.985110783337746
2  38 10 29 0 0.985110783337746
0

0101000
+30 30 -38 30 *
Wi

0101000
-44 20 -29 27 -28 27 +37 23 +52 25 *
Fa
0  1e-07 7 25

0101000
+27 0 *
Ed
 1e-07 1 1 0
1  20 0 4.12670343692762 5.29807452384193
2  39 8 32 4.12670343692762 5.29807452384193
2  40 10 29 4.12670343692762 5.29807452384193
0

0101000
+47 30 -45 30 *
Wi

0101000
-43 20 -25 27 *
Fa
0  1e-07 8 31

0101000
+24 0 *
Ed
 1e-07 1 1 0
1  21 0 0.985110783337746 2.15648187025205
2  41 9 32 0.985110783337746 2.15648187025205
2  42 10 29 0.985110783337746 2.15648187025205
0

0101000
+38 30 -40 30 *
Wi

0101000
-22 27 +36 23 *
Fa
0  1e-07 9 31

0101000
+21 0 *
Ve
1e-07
-3 -3 2.5
0 0

0101101
*
Ed
 1e-07 1 1 0
1  22 0 0 3
3  43 44CN 10 0 0 3
0

0101000
+30 33 -19 33 *
Ed
 1e-07 1 1 0
1  23 0 0 6.28318530717959
2  45 10 36 0 6.28318530717959
2  46 11 32 0 6.28318530717959
0

0101100
+19 37 -19 37 *
Wi

0101000
-28 27 -22 27 -33 27 -25 27 -29 27 -18 0 +17 35 +18 0 *
Fa
0  1e-07 10 0

0101000
+16 0 *
Wi

0101000
-17 39 *
Ve
1e-07
-4.2 -3 2.5
0 0

0101101
*
Ed
 1e-07 1 1 0
1  24 0 0 6.28318530717959
2  47 11 42 0 6.28318530717959
2  48 12 43 0 6.28318530717959
0

0101100
+13 44 -13 44 *
Wi

0101000
+12 41 *
Fa
0  1e-07 11 38

0101000
+14 0 +11 0 *
Ve
1e-07
-4.2 5 2.5
0 0

0101101
*
Ed
 1e-07 1 1 0
1  25 0 0 8
3  49 50CN 12 0 0 8
0

0101000
+13 45 -9 45 *
Ed
 1e-07 1 1 0
1  26 0 0 6.28318530717959
2  51 12 48 0 6.28318530717959
2  52 13 49 0 6.28318530717959
0

0101100
+9 50 -9 50 *
Wi

0101000
-12 41 -8 0 +7 47 +8 0 *
Fa
0  1e-07 12 0

0101000
+6 0 *
Wi

0101100
+7 0 *
Fa
0  1e-07 13 0

0101000
-4 40 *
Sh

0101000
+62 6 +55 6 +48 6 -41 18 +34 18 +31 18 +26 18 +23 18 +20 18 -15 18 
-10 0 -5 0 -3 51 *
So

0100000
+2 0 *

+1 1 