DBRep_DrawableShape

CASCADE Topology V1, (c) Matra-Datavision
Locations 14
1
              1               0               0               0 
              0              -1               0              -0 
              0               0              -1               0 
2  1 -1 0
1
              1               0               0               0 
              0              -1               0              -0 
              0               0              -1               0 
1
              1               0               0               0 
              0              -1 -1.22464679914735e-16              -0 
              0 1.22464679914735e-16              -1               0 
2  3 1 4 -1 0
2  4 1 3 -1 0
2  3 -1 0
2  1 -1 4 1 3 -1 0
1
              1               0               0               0 
              0               1               0 -4.89858719658941e-16 
              0               0               1               4 
2  3 1 4 -1 9 1 0
2  9 -1 4 1 3 -1 0
2  1 -1 9 -1 4 1 3 -1 0
2  4 -1 0
2  4 -1 9 1 0
Curve2ds 120
1 0 0 0 -1 
1 1.5 4.9303806576313238e-32 0 -1 
1 0.80000000000000071 0 0 -1 
1 0 0 0 -1 
1 0 0 1 0 
1 0 0 -1 0 
1 0 -4 1 0 
1 0 0 -1 0 
1 1.5 -4.9303806576313238e-32 0 -1 
1 0 0 0 -1 
1 0 0 1 0 
1 -0.80000000000000071 0 0 1 
1 3.9831970004118395e-16 -4 1 0 
1 -0.80000000000000071 0 0 1 
1 0.80000000000000071 0 0 -1 
1 0 0 0 -1 
1 0 0 1 -0 
1 -0.80000000000000071 1.5 1 0 
1 0 -4 1 -0 
1 -0.80000000000000071 1.4999999999999991 1 0 
1 0 0 1 0 
1 0 1.5 -0 -1 
1 4.8985871965894128e-16 -4 1 0 
1 0 1.4999999999999991 -0 -1 
1 0 0 0 -1 
1 1.5 4.9303806576313238e-32 0 -1 
1 0.80000000000000071 0 0 -1 
1 0 0 0 -1 
1 0 0 1 0 
1 0 0 -1 0 
1 0 -4 1 0 
1 0 0 -1 0 
1 1.5 -4.9303806576313238e-32 0 -1 
1 0 0 0 -1 
1 0 0 1 0 
1 -0.80000000000000071 0 0 1 
1 3.9831970004118395e-16 -4 1 0 
1 -0.80000000000000071 0 0 1 
1 0.80000000000000071 0 0 -1 
1 0 0 0 -1 
1 0 0 1 -0 
1 -0.80000000000000071 1.5 1 0 
1 0 -4 1 -0 
1 -0.80000000000000071 1.4999999999999991 1 0 
1 0 0 1 0 
1 0 1.5 -0 -1 
1 4.8985871965894128e-16 -4 1 0 
1 0 1.4999999999999991 -0 -1 
1 0 0 0 -1 
1 0.80000000000000027 -4.9303806576313238e-32 0 -1 
1 1.5 0 0 -1 
1 0 0 0 -1 
1 0 0 1 0 
1 0 0 -1 0 
1 0 -4 1 0 
1 0 0 -1 0 
1 0.80000000000000027 4.9303806576313238e-32 0 -1 
1 0 0 0 -1 
1 0 0 1 0 
1 -1.5 0 0 1 
1 -4.5769509808878667e-17 -4 1 0 
1 -1.5 0 0 1 
1 1.5 0 0 -1 
1 0 0 0 -1 
1 0 0 1 -0 
1 -1.5 0.80000000000000027 1 0 
1 0 -4 1 -0 
1 -1.5 0.80000000000000027 1 0 
1 0 0 1 0 
1 0 0.80000000000000027 -0 -1 
1 4.5769509808878667e-17 -4 1 0 
1 0 0.80000000000000027 -0 -1 
1 0 0 0 -1 
1 1.5 4.9303806576313238e-32 0 -1 
1 0.80000000000000027 0 0 -1 
1 0 0 0 -1 
1 0 0 1 0 
1 0 0 -1 0 
1 0 -4 1 0 
1 0 0 -1 0 
1 1.5 -4.9303806576313238e-32 0 -1 
1 0 0 0 -1 
1 0 0 1 0 
1 -0.80000000000000027 0 0 1 
1 3.9831970004118395e-16 -4 1 0 
1 -0.80000000000000027 0 0 1 
1 0.80000000000000027 0 0 -1 
1 0 0 0 -1 
1 0 0 1 -0 
1 -0.80000000000000027 1.5 1 0 
1 0 -4 1 -0 
1 -0.80000000000000027 1.4999999999999991 1 0 
1 0 0 1 0 
1 0 1.5 -0 -1 
1 4.8985871965894128e-16 -4 1 0 
1 0 1.4999999999999991 -0 -1 
1 0 0 0 -1 
1 1.5 4.9303806576313238e-32 0 -1 
1 0.79999999999999993 0 0 -1 
1 0 0 0 -1 
1 0 0 1 0 
1 0 0 -1 0 
1 0 -4 1 0 
1 0 0 -1 0 
1 1.5 -4.9303806576313238e-32 0 -1 
1 0 0 0 -1 
1 0 0 1 0 
1 -0.79999999999999993 0 0 1 
1 3.9831970004118395e-16 -4 1 0 
1 -0.79999999999999993 0 0 1 
1 0.79999999999999993 0 0 -1 
1 0 0 0 -1 
1 0 0 1 -0 
1 -0.79999999999999993 1.5 1 0 
1 0 -4 1 -0 
1 -0.79999999999999993 1.4999999999999991 1 0 
1 0 0 1 0 
1 0 1.5 -0 -1 
1 4.8985871965894128e-16 -4 1 0 
1 0 1.4999999999999991 -0 -1 
Curves 60
1 -8.9000000000000004 -7.75 -9.4910126933919878e-16 0 -1.2246467991473532e-16 1 
1 -8.0999999999999996 -7.75 -9.4910126933919878e-16 0 -1.2246467991473532e-16 1 
1 -8.9000000000000004 -7.75 0 1 0 0 
1 -8.9000000000000004 -7.75 0 1 0 0 
1 -8.0999999999999996 -9.25 -1.1327982892113017e-15 0 -1.2246467991473532e-16 1 
1 -8.0999999999999996 -7.75 0 0 -1 0 
1 -8.0999999999999996 -7.75 0 0 -1 0 
1 -8.9000000000000004 -9.25 -1.1327982892113017e-15 0 -1.2246467991473532e-16 1 
1 -8.0999999999999996 -9.25 0 -1 0 0 
1 -8.0999999999999996 -9.25 0 -1 0 0 
1 -8.9000000000000004 -9.25 0 0 1 0 
1 -8.9000000000000004 -9.25 0 0 1 0 
1 -11.4 -7.75 -9.4910126933919878e-16 0 -1.2246467991473532e-16 1 
1 -10.6 -7.75 -9.4910126933919878e-16 0 -1.2246467991473532e-16 1 
1 -11.4 -7.75 0 1 0 0 
1 -11.4 -7.75 0 1 0 0 
1 -10.6 -9.25 -1.1327982892113017e-15 0 -1.2246467991473532e-16 1 
1 -10.6 -7.75 0 0 -1 0 
1 -10.6 -7.75 0 0 -1 0 
1 -11.4 -9.25 -1.1327982892113017e-15 0 -1.2246467991473532e-16 1 
1 -10.6 -9.25 0 -1 0 0 
1 -10.6 -9.25 0 -1 0 0 
1 -11.4 -9.25 0 0 1 0 
1 -11.4 -9.25 0 0 1 0 
1 -6.75 -3.1000000000000001 -3.7964050773567949e-16 0 -1.2246467991473532e-16 1 
1 -5.25 -3.1000000000000001 -3.7964050773567949e-16 0 -1.2246467991473532e-16 1 
1 -6.75 -3.1000000000000001 0 1 0 0 
1 -6.75 -3.1000000000000001 0 1 0 0 
1 -5.25 -3.9000000000000004 -4.7761225166746783e-16 0 -1.2246467991473532e-16 1 
1 -5.25 -3.1000000000000001 0 0 -1 0 
1 -5.25 -3.1000000000000001 0 0 -1 0 
1 -6.75 -3.9000000000000004 -4.7761225166746783e-16 0 -1.2246467991473532e-16 1 
1 -5.25 -3.9000000000000004 0 -1 0 0 
1 -5.25 -3.9000000000000004 0 -1 0 0 
1 -6.75 -3.9000000000000004 0 0 1 0 
1 -6.75 -3.9000000000000004 0 0 1 0 
1 -3.9000000000000004 -7.75 -9.4910126933919878e-16 0 -1.2246467991473532e-16 1 
1 -3.1000000000000001 -7.75 -9.4910126933919878e-16 0 -1.2246467991473532e-16 1 
1 -3.9000000000000004 -7.75 0 1 0 0 
1 -3.9000000000000004 -7.75 0 1 0 0 
1 -3.1000000000000001 -9.25 -1.1327982892113017e-15 0 -1.2246467991473532e-16 1 
1 -3.1000000000000001 -7.75 0 0 -1 0 
1 -3.1000000000000001 -7.75 0 0 -1 0 
1 -3.9000000000000004 -9.25 -1.1327982892113017e-15 0 -1.2246467991473532e-16 1 
1 -3.1000000000000001 -9.25 0 -1 0 0 
1 -3.1000000000000001 -9.25 0 -1 0 0 
1 -3.9000000000000004 -9.25 0 0 1 0 
1 -3.9000000000000004 -9.25 0 0 1 0 
1 -1.3999999999999999 -7.75 -9.4910126933919878e-16 0 -1.2246467991473532e-16 1 
1 -0.59999999999999998 -7.75 -9.4910126933919878e-16 0 -1.2246467991473532e-16 1 
1 -1.3999999999999999 -7.75 0 1 0 0 
1 -1.3999999999999999 -7.75 0 1 0 0 
1 -0.59999999999999998 -9.25 -1.1327982892113017e-15 0 -1.2246467991473532e-16 1 
1 -0.59999999999999998 -7.75 0 0 -1 0 
1 -0.59999999999999998 -7.75 0 0 -1 0 
1 -1.3999999999999999 -9.25 -1.1327982892113017e-15 0 -1.2246467991473532e-16 1 
1 -0.59999999999999998 -9.25 0 -1 0 0 
1 -0.59999999999999998 -9.25 0 -1 0 0 
1 -1.3999999999999999 -9.25 0 0 1 0 
1 -1.3999999999999999 -9.25 0 0 1 0 
Polygon3D 0
PolygonOnTriangulations 0
Surfaces 30
1 -8.9000000000000004 -7.75 -9.4910126933919878e-16 -0 1 1.2246467991473532e-16 1 0 0 0 1.2246467991473532e-16 -1 
1 -8.9000000000000004 -9.25 -1.1327982892113017e-15 -1 0 0 0 1 1.2246467991473532e-16 0 1.2246467991473532e-16 -1 
1 -8.0999999999999996 -7.75 -9.4910126933919878e-16 1 0 0 0 -1 -1.2246467991473532e-16 0 1.2246467991473532e-16 -1 
1 -8.9000000000000004 7.75 0 0 0 -1 -1 0 -0 0 1 0 
1 -8.9000000000000004 7.75 0 0 0 -1 -1 0 -0 0 1 0 
1 -8.0999999999999996 -9.25 -1.1327982892113017e-15 -0 -1 -1.2246467991473532e-16 -1 0 0 0 1.2246467991473532e-16 -1 
1 -11.4 -7.75 -9.4910126933919878e-16 -0 1 1.2246467991473532e-16 1 0 0 0 1.2246467991473532e-16 -1 
1 -11.4 -9.25 -1.1327982892113017e-15 -1 0 0 0 1 1.2246467991473532e-16 0 1.2246467991473532e-16 -1 
1 -10.6 -7.75 -9.4910126933919878e-16 1 0 0 0 -1 -1.2246467991473532e-16 0 1.2246467991473532e-16 -1 
1 -11.4 7.75 0 0 0 -1 -1 0 -0 0 1 0 
1 -11.4 7.75 0 0 0 -1 -1 0 -0 0 1 0 
1 -10.6 -9.25 -1.1327982892113017e-15 -0 -1 -1.2246467991473532e-16 -1 0 0 0 1.2246467991473532e-16 -1 
1 -6.75 -3.1000000000000001 -3.7964050773567949e-16 -0 1 1.2246467991473532e-16 1 0 0 0 1.2246467991473532e-16 -1 
1 -6.75 -3.9000000000000004 -4.7761225166746783e-16 -1 0 0 0 1 1.2246467991473532e-16 0 1.2246467991473532e-16 -1 
1 -5.25 -3.1000000000000001 -3.7964050773567949e-16 1 0 0 0 -1 -1.2246467991473532e-16 0 1.2246467991473532e-16 -1 
1 -6.75 3.1000000000000001 0 0 0 -1 -1 0 -0 0 1 0 
1 -6.75 3.1000000000000001 0 0 0 -1 -1 0 -0 0 1 0 
1 -5.25 -3.9000000000000004 -4.7761225166746783e-16 -0 -1 -1.2246467991473532e-16 -1 0 0 0 1.2246467991473532e-16 -1 
1 -3.9000000000000004 -7.75 -9.4910126933919878e-16 -0 1 1.2246467991473532e-16 1 0 0 0 1.2246467991473532e-16 -1 
1 -3.9000000000000004 -9.25 -1.1327982892113017e-15 -1 0 0 0 1 1.2246467991473532e-16 0 1.2246467991473532e-16 -1 
1 -3.1000000000000001 -7.75 -9.4910126933919878e-16 1 0 0 0 -1 -1.2246467991473532e-16 0 1.2246467991473532e-16 -1 
1 -3.9000000000000004 7.75 0 0 0 -1 -1 0 -0 0 1 0 
1 -3.9000000000000004 7.75 0 0 0 -1 -1 0 -0 0 1 0 
1 -3.1000000000000001 -9.25 -1.1327982892113017e-15 -0 -1 -1.2246467991473532e-16 -1 0 0 0 1.2246467991473532e-16 -1 
1 -1.3999999999999999 -7.75 -9.4910126933919878e-16 -0 1 1.2246467991473532e-16 1 0 0 0 1.2246467991473532e-16 -1 
1 -1.3999999999999999 -9.25 -1.1327982892113017e-15 -1 0 0 0 1 1.2246467991473532e-16 0 1.2246467991473532e-16 -1 
1 -0.59999999999999998 -7.75 -9.4910126933919878e-16 1 0 0 0 -1 -1.2246467991473532e-16 0 1.2246467991473532e-16 -1 
1 -1.3999999999999999 7.75 0 0 0 -1 -1 0 -0 0 1 0 
1 -1.3999999999999999 7.75 0 0 0 -1 -1 0 -0 0 1 0 
1 -0.59999999999999998 -9.25 -1.1327982892113017e-15 -0 -1 -1.2246467991473532e-16 -1 0 0 0 1.2246467991473532e-16 -1 
Triangulations 0

TShapes 171
Ve
1e-07
-8.9 7.75 9.49101269339199e-16
0 0

0101101
*
Ve
1e-07
-8.9 7.75 -4
0 0

0101101
*
Ed
 1e-07 1 1 0
1  1 0 0 4
2  1 1 0 0 4
2  2 2 0 0 4
0

0101000
+171 2 -170 2 *
Ve
1e-07
-8.1 7.75 9.49101269339199e-16
0 0

0101101
*
Ve
1e-07
-8.1 7.75 -4
0 0

0101101
*
Ed
 1e-07 1 1 0
1  2 0 0 4
2  3 1 0 0 4
2  4 3 0 0 4
0

0101000
+168 2 -167 2 *
Ed
 1e-07 1 1 0
1  3 0 0 0.800000000000001
2  5 1 6 0 0.800000000000001
2  6 4 7 0 0.800000000000001
0

0101000
+171 8 -168 8 *
Ed
 1e-07 1 1 0
1  4 0 0 0.800000000000001
2  7 1 11 0 0.800000000000001
2  8 5 7 0 0.800000000000001
0

0101000
+170 12 -167 12 *
Wi

0101000
+169 0 -166 0 -165 5 +164 10 *
Fa
0  1e-07 1 0

0101000
+163 0 *
Ve
1e-07
-8.1 9.25 1.1327982892113e-15
0 0

0101101
*
Ve
1e-07
-8.1 9.25 -4
0 0

0101101
*
Ed
 1e-07 1 1 0
1  5 0 0 4
2  9 3 0 0 4
2  10 6 0 0 4
0

0101000
+161 2 -160 2 *
Ed
 1e-07 1 1 0
1  6 0 0 1.5
2  11 3 6 0 1.5
2  12 4 7 0 1.5
0

0101000
+168 8 -161 8 *
Ed
 1e-07 1 1 0
1  7 0 0 1.5
2  13 3 11 0 1.5
2  14 5 7 0 1.5
0

0101000
+167 12 -160 12 *
Wi

0101000
+166 0 -159 0 -158 5 +157 10 *
Fa
0  1e-07 3 0

0101000
+156 0 *
Ve
1e-07
-8.9 9.25 1.1327982892113e-15
0 0

0101101
*
Ve
1e-07
-8.9 9.25 -4
0 0

0101101
*
Ed
 1e-07 1 1 0
1  8 0 0 4
2  15 6 0 0 4
2  16 2 0 0 4
0

0101000
+154 2 -153 2 *
Ed
 1e-07 1 1 0
1  9 0 0 0.800000000000001
2  17 6 6 0 0.800000000000001
2  18 4 7 0 0.800000000000001
0

0101000
+161 8 -154 8 *
Ed
 1e-07 1 1 0
1  10 0 0 0.800000000000001
2  19 6 11 0 0.800000000000001
2  20 5 7 0 0.800000000000001
0

0101000
+160 12 -153 12 *
Wi

0101000
+159 0 -152 0 -151 5 +150 10 *
Fa
0  1e-07 6 0

0101000
+149 0 *
Ed
 1e-07 1 1 0
1  11 0 0 1.5
2  21 2 6 0 1.5
2  22 4 7 0 1.5
0

0101000
+154 8 -171 8 *
Ed
 1e-07 1 1 0
1  12 0 0 1.5
2  23 2 11 0 1.5
2  24 5 7 0 1.5
0

0101000
+153 12 -170 12 *
Wi

0101000
+152 0 -169 0 -147 5 +146 10 *
Fa
0  1e-07 2 0

0101000
+145 0 *
Wi

0101100
+165 0 +158 0 +151 0 +147 0 *
Fa
0  1e-07 4 0

0101000
-143 3 *
Wi

0101100
+164 0 +157 0 +150 0 +146 0 *
Fa
0  1e-07 5 0

0101000
-141 3 *
Sh

0101000
-162 0 -155 0 -148 0 -144 0 +142 13 -140 14 *
So

0100000
-139 0 *
Ve
1e-07
-11.4 7.75 9.49101269339199e-16
0 0

0101101
*
Ve
1e-07
-11.4 7.75 -4
0 0

0101101
*
Ed
 1e-07 1 1 0
1  13 0 0 4
2  25 7 0 0 4
2  26 8 0 0 4
0

0101000
+137 2 -136 2 *
Ve
1e-07
-10.6 7.75 9.49101269339199e-16
0 0

0101101
*
Ve
1e-07
-10.6 7.75 -4
0 0

0101101
*
Ed
 1e-07 1 1 0
1  14 0 0 4
2  27 7 0 0 4
2  28 9 0 0 4
0

0101000
+134 2 -133 2 *
Ed
 1e-07 1 1 0
1  15 0 0 0.800000000000001
2  29 7 6 0 0.800000000000001
2  30 10 7 0 0.800000000000001
0

0101000
+137 8 -134 8 *
Ed
 1e-07 1 1 0
1  16 0 0 0.800000000000001
2  31 7 11 0 0.800000000000001
2  32 11 7 0 0.800000000000001
0

0101000
+136 12 -133 12 *
Wi

0101000
+135 0 -132 0 -131 5 +130 10 *
Fa
0  1e-07 7 0

0101000
+129 0 *
Ve
1e-07
-10.6 9.25 1.1327982892113e-15
0 0

0101101
*
Ve
1e-07
-10.6 9.25 -4
0 0

0101101
*
Ed
 1e-07 1 1 0
1  17 0 0 4
2  33 9 0 0 4
2  34 12 0 0 4
0

0101000
+127 2 -126 2 *
Ed
 1e-07 1 1 0
1  18 0 0 1.5
2  35 9 6 0 1.5
2  36 10 7 0 1.5
0

0101000
+134 8 -127 8 *
Ed
 1e-07 1 1 0
1  19 0 0 1.5
2  37 9 11 0 1.5
2  38 11 7 0 1.5
0

0101000
+133 12 -126 12 *
Wi

0101000
+132 0 -125 0 -124 5 +123 10 *
Fa
0  1e-07 9 0

0101000
+122 0 *
Ve
1e-07
-11.4 9.25 1.1327982892113e-15
0 0

0101101
*
Ve
1e-07
-11.4 9.25 -4
0 0

0101101
*
Ed
 1e-07 1 1 0
1  20 0 0 4
2  39 12 0 0 4
2  40 8 0 0 4
0

0101000
+120 2 -119 2 *
Ed
 1e-07 1 1 0
1  21 0 0 0.800000000000001
2  41 12 6 0 0.800000000000001
2  42 10 7 0 0.800000000000001
0

0101000
+127 8 -120 8 *
Ed
 1e-07 1 1 0
1  22 0 0 0.800000000000001
2  43 12 11 0 0.800000000000001
2  44 11 7 0 0.800000000000001
0

0101000
+126 12 -119 12 *
Wi

0101000
+125 0 -118 0 -117 5 +116 10 *
Fa
0  1e-07 12 0

0101000
+115 0 *
Ed
 1e-07 1 1 0
1  23 0 0 1.5
2  45 8 6 0 1.5
2  46 10 7 0 1.5
0

0101000
+120 8 -137 8 *
Ed
 1e-07 1 1 0
1  24 0 0 1.5
2  47 8 11 0 1.5
2  48 11 7 0 1.5
0

0101000
+119 12 -136 12 *
Wi

0101000
+118 0 -135 0 -113 5 +112 10 *
Fa
0  1e-07 8 0

0101000
+111 0 *
Wi

0101100
+131 0 +124 0 +117 0 +113 0 *
Fa
0  1e-07 10 0

0101000
-109 3 *
Wi

0101100
+130 0 +123 0 +116 0 +112 0 *
Fa
0  1e-07 11 0

0101000
-107 3 *
Sh

0101000
-128 0 -121 0 -114 0 -110 0 +108 13 -106 14 *
So

0100000
-105 0 *
Ve
1e-07
-6.75 3.1 3.79640507735679e-16
0 0

0101101
*
Ve
1e-07
-6.75 3.1 -4
0 0

0101101
*
Ed
 1e-07 1 1 0
1  25 0 0 4
2  49 13 0 0 4
2  50 14 0 0 4
0

0101000
+103 2 -102 2 *
Ve
1e-07
-5.25 3.1 3.79640507735679e-16
0 0

0101101
*
Ve
1e-07
-5.25 3.1 -4
0 0

0101101
*
Ed
 1e-07 1 1 0
1  26 0 0 4
2  51 13 0 0 4
2  52 15 0 0 4
0

0101000
+100 2 -99 2 *
Ed
 1e-07 1 1 0
1  27 0 0 1.5
2  53 13 6 0 1.5
2  54 16 7 0 1.5
0

0101000
+103 8 -100 8 *
Ed
 1e-07 1 1 0
1  28 0 0 1.5
2  55 13 11 0 1.5
2  56 17 7 0 1.5
0

0101000
+102 12 -99 12 *
Wi

0101000
+101 0 -98 0 -97 5 +96 10 *
Fa
0  1e-07 13 0

0101000
+95 0 *
Ve
1e-07
-5.25 3.9 4.77612251667468e-16
0 0

0101101
*
Ve
1e-07
-5.25 3.9 -4
0 0

0101101
*
Ed
 1e-07 1 1 0
1  29 0 0 4
2  57 15 0 0 4
2  58 18 0 0 4
0

0101000
+93 2 -92 2 *
Ed
 1e-07 1 1 0
1  30 0 0 0.8
2  59 15 6 0 0.8
2  60 16 7 0 0.8
0

0101000
+100 8 -93 8 *
Ed
 1e-07 1 1 0
1  31 0 0 0.8
2  61 15 11 0 0.8
2  62 17 7 0 0.8
0

0101000
+99 12 -92 12 *
Wi

0101000
+98 0 -91 0 -90 5 +89 10 *
Fa
0  1e-07 15 0

0101000
+88 0 *
Ve
1e-07
-6.75 3.9 4.77612251667468e-16
0 0

0101101
*
Ve
1e-07
-6.75 3.9 -4
0 0

0101101
*
Ed
 1e-07 1 1 0
1  32 0 0 4
2  63 18 0 0 4
2  64 14 0 0 4
0

0101000
+86 2 -85 2 *
Ed
 1e-07 1 1 0
1  33 0 0 1.5
2  65 18 6 0 1.5
2  66 16 7 0 1.5
0

0101000
+93 8 -86 8 *
Ed
 1e-07 1 1 0
1  34 0 0 1.5
2  67 18 11 0 1.5
2  68 17 7 0 1.5
0

0101000
+92 12 -85 12 *
Wi

0101000
+91 0 -84 0 -83 5 +82 10 *
Fa
0  1e-07 18 0

0101000
+81 0 *
Ed
 1e-07 1 1 0
1  35 0 0 0.8
2  69 14 6 0 0.8
2  70 16 7 0 0.8
0

0101000
+86 8 -103 8 *
Ed
 1e-07 1 1 0
1  36 0 0 0.8
2  71 14 11 0 0.8
2  72 17 7 0 0.8
0

0101000
+85 12 -102 12 *
Wi

0101000
+84 0 -101 0 -79 5 +78 10 *
Fa
0  1e-07 14 0

0101000
+77 0 *
Wi

0101100
+97 0 +90 0 +83 0 +79 0 *
Fa
0  1e-07 16 0

0101000
-75 3 *
Wi

0101100
+96 0 +89 0 +82 0 +78 0 *
Fa
0  1e-07 17 0

0101000
-73 3 *
Sh

0101000
-94 0 -87 0 -80 0 -76 0 +74 13 -72 14 *
So

0100000
-71 0 *
Ve
1e-07
-3.9 7.75 9.49101269339199e-16
0 0

0101101
*
Ve
1e-07
-3.9 7.75 -4
0 0

0101101
*
Ed
 1e-07 1 1 0
1  37 0 0 4
2  73 19 0 0 4
2  74 20 0 0 4
0

0101000
+69 2 -68 2 *
Ve
1e-07
-3.1 7.75 9.49101269339199e-16
0 0

0101101
*
Ve
1e-07
-3.1 7.75 -4
0 0

0101101
*
Ed
 1e-07 1 1 0
1  38 0 0 4
2  75 19 0 0 4
2  76 21 0 0 4
0

0101000
+66 2 -65 2 *
Ed
 1e-07 1 1 0
1  39 0 0 0.8
2  77 19 6 0 0.8
2  78 22 7 0 0.8
0

0101000
+69 8 -66 8 *
Ed
 1e-07 1 1 0
1  40 0 0 0.8
2  79 19 11 0 0.8
2  80 23 7 0 0.8
0

0101000
+68 12 -65 12 *
Wi

0101000
+67 0 -64 0 -63 5 +62 10 *
Fa
0  1e-07 19 0

0101000
+61 0 *
Ve
1e-07
-3.1 9.25 1.1327982892113e-15
0 0

0101101
*
Ve
1e-07
-3.1 9.25 -4
0 0

0101101
*
Ed
 1e-07 1 1 0
1  41 0 0 4
2  81 21 0 0 4
2  82 24 0 0 4
0

0101000
+59 2 -58 2 *
Ed
 1e-07 1 1 0
1  42 0 0 1.5
2  83 21 6 0 1.5
2  84 22 7 0 1.5
0

0101000
+66 8 -59 8 *
Ed
 1e-07 1 1 0
1  43 0 0 1.5
2  85 21 11 0 1.5
2  86 23 7 0 1.5
0

0101000
+65 12 -58 12 *
Wi

0101000
+64 0 -57 0 -56 5 +55 10 *
Fa
0  1e-07 21 0

0101000
+54 0 *
Ve
1e-07
-3.9 9.25 1.1327982892113e-15
0 0

0101101
*
Ve
1e-07
-3.9 9.25 -4
0 0

0101101
*
Ed
 1e-07 1 1 0
1  44 0 0 4
2  87 24 0 0 4
2  88 20 0 0 4
0

0101000
+52 2 -51 2 *
Ed
 1e-07 1 1 0
1  45 0 0 0.8
2  89 24 6 0 0.8
2  90 22 7 0 0.8
0

0101000
+59 8 -52 8 *
Ed
 1e-07 1 1 0
1  46 0 0 0.8
2  91 24 11 0 0.8
2  92 23 7 0 0.8
0

0101000
+58 12 -51 12 *
Wi

0101000
+57 0 -50 0 -49 5 +48 10 *
Fa
0  1e-07 24 0

0101000
+47 0 *
Ed
 1e-07 1 1 0
1  47 0 0 1.5
2  93 20 6 0 1.5
2  94 22 7 0 1.5
0

0101000
+52 8 -69 8 *
Ed
 1e-07 1 1 0
1  48 0 0 1.5
2  95 20 11 0 1.5
2  96 23 7 0 1.5
0

0101000
+51 12 -68 12 *
Wi

0101000
+50 0 -67 0 -45 5 +44 10 *
Fa
0  1e-07 20 0

0101000
+43 0 *
Wi

0101100
+63 0 +56 0 +49 0 +45 0 *
Fa
0  1e-07 22 0

0101000
-41 3 *
Wi

0101100
+62 0 +55 0 +48 0 +44 0 *
Fa
0  1e-07 23 0

0101000
-39 3 *
Sh

0101000
-60 0 -53 0 -46 0 -42 0 +40 13 -38 14 *
So

0100000
-37 0 *
Ve
1e-07
-1.4 7.75 9.49101269339199e-16
0 0

0101101
*
Ve
1e-07
-1.4 7.75 -4
0 0

0101101
*
Ed
 1e-07 1 1 0
1  49 0 0 4
2  97 25 0 0 4
2  98 26 0 0 4
0

0101000
+35 2 -34 2 *
Ve
1e-07
-0.6 7.75 9.49101269339199e-16
0 0

0101101
*
Ve
1e-07
-0.6 7.75 -4
0 0

0101101
*
Ed
 1e-07 1 1 0
1  50 0 0 4
2  99 25 0 0 4
2  100 27 0 0 4
0

0101000
+32 2 -31 2 *
Ed
 1e-07 1 1 0
1  51 0 0 0.8
2  101 25 6 0 0.8
2  102 28 7 0 0.8
0

0101000
+35 8 -32 8 *
Ed
 1e-07 1 1 0
1  52 0 0 0.8
2  103 25 11 0 0.8
2  104 29 7 0 0.8
0

0101000
+34 12 -31 12 *
Wi

0101000
+33 0 -30 0 -29 5 +28 10 *
Fa
0  1e-07 25 0

0101000
+27 0 *
Ve
1e-07
-0.6 9.25 1.1327982892113e-15
0 0

0101101
*
Ve
1e-07
-0.6 9.25 -4
0 0

0101101
*
Ed
 1e-07 1 1 0
1  53 0 0 4
2  105 27 0 0 4
2  106 30 0 0 4
0

0101000
+25 2 -24 2 *
Ed
 1e-07 1 1 0
1  54 0 0 1.5
2  107 27 6 0 1.5
2  108 28 7 0 1.5
0

0101000
+32 8 -25 8 *
Ed
 1e-07 1 1 0
1  55 0 0 1.5
2  109 27 11 0 1.5
2  110 29 7 0 1.5
0

0101000
+31 12 -24 12 *
Wi

0101000
+30 0 -23 0 -22 5 +21 10 *
Fa
0  1e-07 27 0

0101000
+20 0 *
Ve
1e-07
-1.4 9.25 1.1327982892113e-15
0 0

0101101
*
Ve
1e-07
-1.4 9.25 -4
0 0

0101101
*
Ed
 1e-07 1 1 0
1  56 0 0 4
2  111 30 0 0 4
2  112 26 0 0 4
0

0101000
+18 2 -17 2 *
Ed
 1e-07 1 1 0
1  57 0 0 0.8
2  113 30 6 0 0.8
2  114 28 7 0 0.8
0

0101000
+25 8 -18 8 *
Ed
 1e-07 1 1 0
1  58 0 0 0.8
2  115 30 11 0 0.8
2  116 29 7 0 0.8
0

0101000
+24 12 -17 12 *
Wi

0101000
+23 0 -16 0 -15 5 +14 10 *
Fa
0  1e-07 30 0

0101000
+13 0 *
Ed
 1e-07 1 1 0
1  59 0 0 1.5
2  117 26 6 0 1.5
2  118 28 7 0 1.5
0

0101000
+18 8 -35 8 *
Ed
 1e-07 1 1 0
1  60 0 0 1.5
2  119 26 11 0 1.5
2  120 29 7 0 1.5
0

0101000
+17 12 -34 12 *
Wi

0101000
+16 0 -33 0 -11 5 +10 10 *
Fa
0  1e-07 26 0

0101000
+9 0 *
Wi

0101100
+29 0 +22 0 +15 0 +11 0 *
Fa
0  1e-07 28 0

0101000
-7 3 *
Wi

0101100
+28 0 +21 0 +14 0 +10 0 *
Fa
0  1e-07 29 0

0101000
-5 3 *
Sh

0101000
-26 0 -19 0 -12 0 -8 0 +6 13 -4 14 *
So

0100000
-3 0 *
Co

1100000
+138 0 +104 0 +70 0 +36 0 +2 0 *

+1 1 