DBRep_DrawableShape

CASCADE Topology V1, (c) Matra-Datavision
Locations 34
1
              1               0               0               0 
              0               1               0               0 
              0               0               1               0 
1
              1               0               0               0 
              0               1               0               0 
              0               0               1               0 
1
              1               0               0               0 
              0               1               0               0 
              0               0               1               0 
2  2 1 3 -1 0
2  1 -1 3 1 2 -1 0
1
              1               0               0               0 
              0               1               0               0 
              0               0               1               0 
1
              1               0               0               0 
              0               1               0               0 
              0               0               1               0 
2  6 1 7 -1 0
2  7 1 6 -1 0
2  6 -1 0
2  1 -1 3 1 2 -1 7 1 6 -1 0
1
              1               0               0               0 
              0               1               0               0 
              0               0               1               5 
2  6 1 7 -1 12 1 0
2  12 -1 7 1 6 -1 0
2  1 -1 3 1 2 -1 12 -1 7 1 6 -1 0
2  7 -1 2 1 3 -1 0
2  6 1 7 -1 2 1 3 -1 0
2  2 -1 7 1 6 -1 0
2  7 -1 12 1 2 1 3 -1 0
2  6 1 7 -1 12 1 2 1 3 -1 0
2  2 -1 12 -1 7 1 6 -1 0
1
              1               0               0              -0 
              0 2.22044604925031e-16              -1              -0 
              0               1 2.22044604925031e-16               0 
2  22 1 3 -1 0
2  2 1 22 -1 0
2  3 1 22 -1 0
2  1 -1 3 1 22 -1 0
2  3 -1 0
2  22 -1 0
2  1 -1 0
1
              1               0               0               0 
              0               1               0              -3 
              0               0               1 6.66133814775094e-16 
2  22 1 3 -1 30 1 0
2  30 -1 3 1 22 -1 0
2  1 -1 30 -1 3 1 22 -1 0
2  3 -1 30 1 0
Curve2ds 46
1 0 0 0 -1 
1 11 0 0 -1 
1 12 0 0 -1 
1 0 0 0 -1 
1 0 0 1 0 
1 0 0 1 0 
1 0 -5 1 0 
1 0 0 1 0 
1 0 0 0 -1 
1 12 0 0 -1 
1 0 0 1 0 
1 0 -11 0 1 
1 0 -5 1 0 
1 0 -11 0 1 
1 11 0 0 -1 
1 0 -0 0 -1 
1 0 0 1 0 
1 12 0 0 -1 
1 0 -5 1 0 
1 12 0 0 -1 
1 12 -11 -1 0 
1 0 -0 1 0 
1 12 -11 -1 0 
1 0 -0 1 0 
1 12 -11 -1 0 
1 -2.5 3 0 -1 
1 12 -11 -1 0 
1 0 -5 1 0 
1 12 -11 -1 0 
1 0 -5 1 0 
1 12 -11 -1 0 
1 2.5 3 0 -1 
2 6 -2.5 -1 -0 0 -1 3
1 0 0 1 0 
2 6 -2.5 -1 -0 0 -1 3
1 0 0 1 0 
2 6 -2.5 -1 -0 0 -1 3
1 0 0 1 0 
2 0 -3 0 1 1 -0 3
1 0 0 1 0 
2 0 -3 0 1 1 -0 3
1 0 0 1 0 
1 0 0 0 -1 
1 6.2831853071795862 0 0 -1 
1 0 -3 1 0 
2 0 -3 0 1 1 -0 3
Curves 23
1 -12 11 0 0 0 1 
1 0 11 0 0 0 1 
1 -12 11 0 1 0 0 
1 -12 11 0 1 0 0 
1 -12 0 0 0 0 1 
1 -12 0 0 0 1 0 
1 -12 0 0 0 1 0 
1 0 0 0 0 0 1 
1 0 11 0 0 -1 0 
1 0 11 0 0 -1 0 
1 0 0 0 -1 0 0 
1 0 0 0 -1 0 0 
1 0 0 0 -1 0 0 
1 0 0 0 -1 0 0 
1 0 0 0 -1 0 0 
1 0 0 0 -1 0 0 
2 -6 2.5 0 0 0 1 1 0 -0 -0 1 0 3
2 -6 2.5 0 0 0 1 1 0 -0 -0 1 0 3
2 -6 2.5 0 0 0 1 1 0 -0 -0 1 0 3
2 -6 2.5 0 0 0 1 1 0 -0 -0 1 0 3
2 -6 2.5 0 0 0 1 1 0 -0 -0 1 0 3
1 -3 5.5511151231257827e-16 2.5 0 -1 2.2204460492503131e-16 
2 -6 2.5 0 0 0 1 1 0 -0 -0 1 0 3
Polygon3D 0
PolygonOnTriangulations 0
Surfaces 11
1 -12 11 0 0 1 0 1 0 0 0 0 -1 
1 -12 0 0 -1 0 0 0 1 0 0 0 -1 
1 0 11 0 1 0 -0 0 -1 0 0 -0 -1 
1 -12 11 0 -0 0 1 1 0 0 0 1 -0 
1 -12 11 0 -0 0 1 1 0 0 0 1 -0 
1 0 0 0 0 -1 0 -1 0 0 -0 -0 -1 
1 0 0 0 0 -1 0 -1 0 0 -0 -0 -1 
1 -3 5.5511151231257827e-16 2.5 0 1 -2.2204460492503131e-16 0 2.2204460492503131e-16 1 1 -0 0 
1 -3 5.5511151231257827e-16 2.5 0 1 -2.2204460492503131e-16 0 2.2204460492503131e-16 1 1 -0 0 
2 -6 5.5511151231257827e-16 2.5 -0 1 -2.2204460492503131e-16 1 0 0 0 2.2204460492503131e-16 1 3
1 -3 5.5511151231257827e-16 2.5 0 1 -2.2204460492503131e-16 0 2.2204460492503131e-16 1 1 -0 0 
Triangulations 0

TShapes 61
Ve
1e-07
-12 11 0
0 0

0101101
*
Ve
1e-07
-12 11 5
0 0

0101101
*
Ed
 1e-07 1 1 0
1  1 0 0 5
2  1 1 0 0 5
2  2 2 0 0 5
0

0101000
+61 5 -60 5 *
Ve
1e-07
0 11 0
0 0

0101101
*
Ve
1e-07
0 11 5
0 0

0101101
*
Ed
 1e-07 1 1 0
1  2 0 0 5
2  3 1 0 0 5
2  4 3 0 0 5
0

0101000
+58 5 -57 5 *
Ed
 1e-07 1 1 0
1  3 0 0 12
2  5 1 9 0 12
2  6 4 10 0 12
0

0101000
+61 11 -58 11 *
Ed
 1e-07 1 1 0
1  4 0 0 12
2  7 1 14 0 12
2  8 5 10 0 12
0

0101000
+60 15 -57 15 *
Wi

0101000
+59 0 -56 0 -55 8 +54 13 *
Fa
0  1e-07 1 0

0101000
+53 0 *
Ve
1e-07
-12 0 0
0 0

0101101
*
Ve
1e-07
-12 0 5
0 0

0101101
*
Ed
 1e-07 1 1 0
1  5 0 0 5
2  9 2 0 0 5
2  10 6 0 0 5
0

0101000
+51 5 -50 5 *
Ed
 1e-07 1 1 0
1  6 0 0 11
2  11 2 9 0 11
2  12 4 10 0 11
0

0101000
+51 11 -61 11 *
Ed
 1e-07 1 1 0
1  7 0 0 11
2  13 2 14 0 11
2  14 5 10 0 11
0

0101000
+50 15 -60 15 *
Wi

0101000
+49 0 -59 0 -48 8 +47 13 *
Fa
0  1e-07 2 0

0101000
+46 0 *
Ve
1e-07
0 0 0
0 0

0101101
*
Ve
1e-07
0 0 5
0 0

0101101
*
Ed
 1e-07 1 1 0
1  8 0 0 5
2  15 3 0 0 5
2  16 7 0 0 5
0

0101000
+44 5 -43 5 *
Ed
 1e-07 1 1 0
1  9 0 0 11
2  17 3 9 0 11
2  18 4 10 0 11
0

0101000
+58 11 -44 11 *
Ed
 1e-07 1 1 0
1  10 0 0 11
2  19 3 14 0 11
2  20 5 10 0 11
0

0101000
+57 15 -43 15 *
Wi

0101000
+56 0 -42 0 -41 8 +40 13 *
Fa
0  1e-07 3 0

0101000
+39 0 *
Ve
1.00000084373444e-07
-7.65831239517744 -1.56786104912676e-29 -7.061018436616e-14
0 0

0101101
*
Ed
 1e-07 1 1 0
1  11 0 7.65831239517744 12
2  21 4 10 7.65831239517744 12
2  22 6 9 7.65831239517744 12
0

0101000
+37 11 -51 11 *
Ve
1.00000084309433e-07
-4.34168760482204 1.55306990715387e-29 6.99440505513849e-14
0 0

0101101
*
Ed
 1e-07 1 1 0
1  12 0 0 4.34168760482204
2  23 4 10 0 4.34168760482204
2  24 7 9 0 4.34168760482204
0

0101000
+44 11 -35 11 *
Ed
 1e-07 1 1 0
1  13 0 4.34168760482204 7.65831239517744
2  25 4 10 4.34168760482204 7.65831239517744
2  26 8 18 4.34168760482204 7.65831239517744
0

0101000
+35 11 -37 11 *
Wi

0101000
-55 17 -48 17 -41 17 -36 17 -34 17 -33 17 *
Fa
0  1e-07 4 16

0101000
+32 0 *
Ve
1.00000000555112e-07
-7.6583123951777 5.55111512312578e-16 5
0 0

0101101
*
Ed
 1e-07 1 1 0
1  14 0 7.6583123951777 12
2  27 5 10 7.6583123951777 12
2  28 6 14 7.6583123951777 12
0

0101000
+30 15 -50 15 *
Ve
1.00000000555112e-07
-4.3416876048223 5.55111512312578e-16 5
0 0

0101101
*
Ed
 1e-07 1 1 0
1  15 0 0 4.3416876048223
2  29 5 10 0 4.3416876048223
2  30 7 14 0 4.3416876048223
0

0101000
+43 15 -28 15 *
Ed
 1e-07 1 1 0
1  16 0 4.3416876048223 7.6583123951777
2  31 5 10 4.3416876048223 7.6583123951777
2  32 9 21 4.3416876048223 7.6583123951777
0

0101000
+28 15 -30 15 *
Wi

0101000
-54 20 -47 20 -40 20 -29 20 -27 20 -26 20 *
Fa
0  1e-07 5 19

0101000
+25 0 *
Ed
 1e-07 1 1 0
1  17 0 2.15648187025205 4.12670343692762
2  33 6 24 2.15648187025205 4.12670343692762
2  34 10 25 2.15648187025205 4.12670343692762
0

0101000
+30 26 -37 26 *
Wi

0101000
-36 17 -49 4 +29 20 -23 23 *
Fa
0  1e-07 6 4

0101000
+22 0 *
Ve
1e-07
-3 5.55111512312578e-16 2.5
0 0

0101101
*
Ed
 1e-07 1 1 0
1  18 0 5.29807452384193 6.28318530717959
2  35 7 24 5.29807452384193 6.28318530717959
2  36 10 25 5.29807452384193 6.28318530717959
0

0101000
+35 26 -20 26 *
Ed
 1e-07 1 1 0
1  19 0 0 0.985110783337746
2  37 7 24 0 0.985110783337746
2  38 10 25 0 0.985110783337746
0

0101000
+20 26 -28 26 *
Wi

0101000
-34 17 -19 23 -18 23 +27 20 +42 4 *
Fa
0  1e-07 7 4

0101000
+17 0 *
Ed
 1e-07 1 1 0
1  20 0 4.12670343692762 5.29807452384193
2  39 8 28 4.12670343692762 5.29807452384193
2  40 10 25 4.12670343692762 5.29807452384193
0

0101000
+37 26 -35 26 *
Wi

0101000
-33 17 -15 23 *
Fa
0  1e-07 8 27

0101000
+14 0 *
Ed
 1e-07 1 1 0
1  21 0 0.985110783337746 2.15648187025205
2  41 9 28 0.985110783337746 2.15648187025205
2  42 10 25 0.985110783337746 2.15648187025205
0

0101000
+28 26 -30 26 *
Wi

0101000
-12 23 +26 20 *
Fa
0  1e-07 9 27

0101000
+11 0 *
Ve
1e-07
-3 -3 2.5
0 0

0101101
*
Ed
 1e-07 1 1 0
1  22 0 0 3
3  43 44CN 10 0 0 3
0

0101000
+20 29 -9 29 *
Ed
 1e-07 1 1 0
1  23 0 0 6.28318530717959
2  45 10 32 0 6.28318530717959
2  46 11 28 0 6.28318530717959
0

0101100
+9 33 -9 33 *
Wi

0101000
-18 23 -12 23 -23 23 -15 23 -19 23 -8 0 +7 31 +8 0 *
Fa
0  1e-07 10 0

0101000
+6 0 *
Wi

0101100
+7 0 *
Fa
0  1e-07 11 0

0101000
-4 22 *
Sh

0101000
+52 4 +45 4 +38 4 -31 0 +24 0 +21 0 +16 0 +13 0 +10 0 -5 0 
-3 34 *
So

0100000
+2 0 *

+1 1 