DBRep_DrawableShape

CASCADE Topology V1, (c) Matra-Datavision
Locations 10
1
              1              -0               0              -0 
              0 2.22044604925031e-16              -1              -3 
              0               1 2.22044604925031e-16 6.66133814775094e-16 
1
              1               0               0               0 
              0               1               0               0 
              0               0               1               0 
2  1 1 2 -1 0
2  2 1 1 -1 0
2  1 -1 0
1
              1               0               0               0 
              0               1               0               8 
              0               0               1 -1.77635683940025e-15 
2  1 1 2 -1 6 1 0
2  6 -1 2 1 1 -1 0
2  2 -1 0
2  2 -1 6 1 0
Curve2ds 6
1 0 0 0 -1 
1 6.2831853071795862 0 0 -1 
1 0 0 1 0 
2 0 -1.7999999999999998 0 1 1 -0 1.7999999999999998
1 0 -8 1 0 
2 0 -1.7999999999999998 0 1 1 -0 1.7999999999999998
Curves 3
1 -4.2000000000000002 -2.9999999999999996 2.5000000000000009 0 1 -2.2204460492503131e-16 
2 -6 2.5 0 0 0 1 1 0 -0 -0 1 0 1.8
2 -6 2.5 0 0 0 1 1 0 -0 -0 1 0 1.8
Polygon3D 0
PolygonOnTriangulations 0
Surfaces 3
2 -6 -2.9999999999999996 2.5000000000000009 0 -1 2.2204460492503131e-16 1 0 0 0 2.2204460492503131e-16 1 1.8
1 -4.2000000000000002 -2.9999999999999996 2.5000000000000009 -3.5142674072725541e-32 1 -2.8488336094571317e-16 0 2.8488336094571317e-16 1 1 3.5142674072725541e-32 -1.0011563102457827e-47 
1 -4.2000000000000002 -2.9999999999999996 2.5000000000000009 -3.5142674072725541e-32 1 -2.8488336094571317e-16 0 2.8488336094571317e-16 1 1 3.5142674072725541e-32 -1.0011563102457827e-47 
Triangulations 0

TShapes 13
Ve
1e-07
-4.2 -3 2.5
0 0

0101101
*
Ve
1e-07
-4.2 5 2.5
0 0

0101101
*
Ed
 1e-07 1 1 0
1  1 0 0 8
3  1 2CN 1 0 0 8
0

0101000
+13 0 -12 0 *
Ed
 1e-07 1 1 0
1  2 0 0 6.28318530717959
2  3 1 4 0 6.28318530717959
2  4 2 5 0 6.28318530717959
0

0101100
+13 4 -13 4 *
Ed
 1e-07 1 1 0
1  3 0 0 6.28318530717959
2  5 1 8 0 6.28318530717959
2  6 3 5 0 6.28318530717959
0

0101100
+12 8 -12 8 *
Wi

0101000
+11 0 -11 0 -10 3 +9 7 *
Fa
0  1e-07 1 0

0101000
+8 0 *
Wi

0101100
+10 0 *
Fa
0  1e-07 2 0

0101000
-6 1 *
Wi

0101100
+9 0 *
Fa
0  1e-07 3 0

0101000
-4 1 *
Sh

0101000
-7 0 +5 9 -3 10 *
So

1100000
-2 0 *

+1 0 