DBRep_DrawableShape

CASCADE Topology V1, (c) Matra-Datavision
Locations 10
1
              1               0               0               0 
              0              -1               0              -0 
              0               0              -1               0 
1
              1               0               0               0 
              0              -1 -1.22464679914735e-16              -0 
              0 1.22464679914735e-16              -1               0 
2  1 1 2 -1 0
2  2 1 1 -1 0
2  1 -1 0
1
              1               0               0               0 
              0               1               0 -4.89858719658941e-16 
              0               0               1               4 
2  1 1 2 -1 6 1 0
2  6 -1 2 1 1 -1 0
2  2 -1 0
2  2 -1 6 1 0
Curve2ds 120
1 0 0 0 -1 
1 1.5 4.9303806576313238e-32 0 -1 
1 0.80000000000000071 0 0 -1 
1 0 0 0 -1 
1 0 0 1 0 
1 0 0 -1 0 
1 0 -4 1 0 
1 0 0 -1 0 
1 1.5 -4.9303806576313238e-32 0 -1 
1 0 0 0 -1 
1 0 0 1 0 
1 -0.80000000000000071 0 0 1 
1 3.9831970004118395e-16 -4 1 0 
1 -0.80000000000000071 0 0 1 
1 0.80000000000000071 0 0 -1 
1 0 0 0 -1 
1 0 0 1 0 
1 -0.80000000000000071 1.5 1 -0 
1 0 -4 1 0 
1 -0.80000000000000071 1.4999999999999991 1 -0 
1 0 0 1 0 
1 0 1.5 0 -1 
1 4.8985871965894128e-16 -4 1 0 
1 0 1.4999999999999991 0 -1 
1 0 0 0 -1 
1 1.5 4.9303806576313238e-32 0 -1 
1 0.80000000000000071 0 0 -1 
1 0 0 0 -1 
1 0 0 1 0 
1 0 0 -1 0 
1 0 -4 1 0 
1 0 0 -1 0 
1 1.5 -4.9303806576313238e-32 0 -1 
1 0 0 0 -1 
1 0 0 1 0 
1 -0.80000000000000071 0 0 1 
1 3.9831970004118395e-16 -4 1 0 
1 -0.80000000000000071 0 0 1 
1 0.80000000000000071 0 0 -1 
1 0 0 0 -1 
1 0 0 1 0 
1 -0.80000000000000071 1.5 1 -0 
1 0 -4 1 0 
1 -0.80000000000000071 1.4999999999999991 1 -0 
1 0 0 1 0 
1 0 1.5 0 -1 
1 4.8985871965894128e-16 -4 1 0 
1 0 1.4999999999999991 0 -1 
1 0 0 0 -1 
1 0.80000000000000027 -4.9303806576313238e-32 0 -1 
1 1.5 0 0 -1 
1 0 0 0 -1 
1 0 0 1 0 
1 0 0 -1 0 
1 0 -4 1 0 
1 0 0 -1 0 
1 0.80000000000000027 4.9303806576313238e-32 0 -1 
1 0 0 0 -1 
1 0 0 1 0 
1 -1.5 0 0 1 
1 -4.5769509808878667e-17 -4 1 0 
1 -1.5 0 0 1 
1 1.5 0 0 -1 
1 0 0 0 -1 
1 0 0 1 0 
1 -1.5 0.80000000000000027 1 -0 
1 0 -4 1 0 
1 -1.5 0.80000000000000027 1 -0 
1 0 0 1 0 
1 0 0.80000000000000027 0 -1 
1 4.5769509808878667e-17 -4 1 0 
1 0 0.80000000000000027 0 -1 
1 0 0 0 -1 
1 1.5 4.9303806576313238e-32 0 -1 
1 0.80000000000000027 0 0 -1 
1 0 0 0 -1 
1 0 0 1 0 
1 0 0 -1 0 
1 0 -4 1 0 
1 0 0 -1 0 
1 1.5 -4.9303806576313238e-32 0 -1 
1 0 0 0 -1 
1 0 0 1 0 
1 -0.80000000000000027 0 0 1 
1 3.9831970004118395e-16 -4 1 0 
1 -0.80000000000000027 0 0 1 
1 0.80000000000000027 0 0 -1 
1 0 0 0 -1 
1 0 0 1 0 
1 -0.80000000000000027 1.5 1 -0 
1 0 -4 1 0 
1 -0.80000000000000027 1.4999999999999991 1 -0 
1 0 0 1 0 
1 0 1.5 0 -1 
1 4.8985871965894128e-16 -4 1 0 
1 0 1.4999999999999991 0 -1 
1 0 0 0 -1 
1 1.5 4.9303806576313238e-32 0 -1 
1 0.79999999999999993 0 0 -1 
1 0 0 0 -1 
1 0 0 1 0 
1 0 0 -1 0 
1 0 -4 1 0 
1 0 0 -1 0 
1 1.5 -4.9303806576313238e-32 0 -1 
1 0 0 0 -1 
1 0 0 1 0 
1 -0.79999999999999993 0 0 1 
1 3.9831970004118395e-16 -4 1 0 
1 -0.79999999999999993 0 0 1 
1 0.79999999999999993 0 0 -1 
1 0 0 0 -1 
1 0 0 1 0 
1 -0.79999999999999993 1.5 1 -0 
1 0 -4 1 0 
1 -0.79999999999999993 1.4999999999999991 1 -0 
1 0 0 1 0 
1 0 1.5 0 -1 
1 4.8985871965894128e-16 -4 1 0 
1 0 1.4999999999999991 0 -1 
Curves 60
1 -8.9000000000000004 -7.75 -9.4910126933919878e-16 0 -1.2246467991473532e-16 1 
1 -8.0999999999999996 -7.75 -9.4910126933919878e-16 0 -1.2246467991473532e-16 1 
1 -8.9000000000000004 -7.75 0 1 0 0 
1 -8.9000000000000004 -7.75 0 1 0 0 
1 -8.0999999999999996 -9.25 -1.1327982892113017e-15 0 -1.2246467991473532e-16 1 
1 -8.0999999999999996 -7.75 0 0 -1 0 
1 -8.0999999999999996 -7.75 0 0 -1 0 
1 -8.9000000000000004 -9.25 -1.1327982892113017e-15 0 -1.2246467991473532e-16 1 
1 -8.0999999999999996 -9.25 0 -1 0 0 
1 -8.0999999999999996 -9.25 0 -1 0 0 
1 -8.9000000000000004 -9.25 0 0 1 0 
1 -8.9000000000000004 -9.25 0 0 1 0 
1 -11.4 -7.75 -9.4910126933919878e-16 0 -1.2246467991473532e-16 1 
1 -10.6 -7.75 -9.4910126933919878e-16 0 -1.2246467991473532e-16 1 
1 -11.4 -7.75 0 1 0 0 
1 -11.4 -7.75 0 1 0 0 
1 -10.6 -9.25 -1.1327982892113017e-15 0 -1.2246467991473532e-16 1 
1 -10.6 -7.75 0 0 -1 0 
1 -10.6 -7.75 0 0 -1 0 
1 -11.4 -9.25 -1.1327982892113017e-15 0 -1.2246467991473532e-16 1 
1 -10.6 -9.25 0 -1 0 0 
1 -10.6 -9.25 0 -1 0 0 
1 -11.4 -9.25 0 0 1 0 
1 -11.4 -9.25 0 0 1 0 
1 -6.75 -3.1000000000000001 -3.7964050773567949e-16 0 -1.2246467991473532e-16 1 
1 -5.25 -3.1000000000000001 -3.7964050773567949e-16 0 -1.2246467991473532e-16 1 
1 -6.75 -3.1000000000000001 0 1 0 0 
1 -6.75 -3.1000000000000001 0 1 0 0 
1 -5.25 -3.9000000000000004 -4.7761225166746783e-16 0 -1.2246467991473532e-16 1 
1 -5.25 -3.1000000000000001 0 0 -1 0 
1 -5.25 -3.1000000000000001 0 0 -1 0 
1 -6.75 -3.9000000000000004 -4.7761225166746783e-16 0 -1.2246467991473532e-16 1 
1 -5.25 -3.9000000000000004 0 -1 0 0 
1 -5.25 -3.9000000000000004 0 -1 0 0 
1 -6.75 -3.9000000000000004 0 0 1 0 
1 -6.75 -3.9000000000000004 0 0 1 0 
1 -3.9000000000000004 -7.75 -9.4910126933919878e-16 0 -1.2246467991473532e-16 1 
1 -3.1000000000000001 -7.75 -9.4910126933919878e-16 0 -1.2246467991473532e-16 1 
1 -3.9000000000000004 -7.75 0 1 0 0 
1 -3.9000000000000004 -7.75 0 1 0 0 
1 -3.1000000000000001 -9.25 -1.1327982892113017e-15 0 -1.2246467991473532e-16 1 
1 -3.1000000000000001 -7.75 0 0 -1 0 
1 -3.1000000000000001 -7.75 0 0 -1 0 
1 -3.9000000000000004 -9.25 -1.1327982892113017e-15 0 -1.2246467991473532e-16 1 
1 -3.1000000000000001 -9.25 0 -1 0 0 
1 -3.1000000000000001 -9.25 0 -1 0 0 
1 -3.9000000000000004 -9.25 0 0 1 0 
1 -3.9000000000000004 -9.25 0 0 1 0 
1 -1.3999999999999999 -7.75 -9.4910126933919878e-16 0 -1.2246467991473532e-16 1 
1 -0.59999999999999998 -7.75 -9.4910126933919878e-16 0 -1.2246467991473532e-16 1 
1 -1.3999999999999999 -7.75 0 1 0 0 
1 -1.3999999999999999 -7.75 0 1 0 0 
1 -0.59999999999999998 -9.25 -1.1327982892113017e-15 0 -1.2246467991473532e-16 1 
1 -0.59999999999999998 -7.75 0 0 -1 0 
1 -0.59999999999999998 -7.75 0 0 -1 0 
1 -1.3999999999999999 -9.25 -1.1327982892113017e-15 0 -1.2246467991473532e-16 1 
1 -0.59999999999999998 -9.25 0 -1 0 0 
1 -0.59999999999999998 -9.25 0 -1 0 0 
1 -1.3999999999999999 -9.25 0 0 1 0 
1 -1.3999999999999999 -9.25 0 0 1 0 
Polygon3D 0
PolygonOnTriangulations 0
Surfaces 30
1 -8.9000000000000004 -7.75 -9.4910126933919878e-16 -0 1 1.2246467991473532e-16 1 0 0 0 1.2246467991473532e-16 -1 
1 -8.9000000000000004 -9.25 -1.1327982892113017e-15 -1 0 0 0 1 1.2246467991473532e-16 0 1.2246467991473532e-16 -1 
1 -8.0999999999999996 -7.75 -9.4910126933919878e-16 1 0 0 0 -1 -1.2246467991473532e-16 0 1.2246467991473532e-16 -1 
1 -8.9000000000000004 7.75 0 0 0 -1 -1 0 -0 0 1 0 
1 -8.9000000000000004 7.75 0 0 0 -1 -1 0 -0 0 1 0 
1 -8.0999999999999996 -9.25 -1.1327982892113017e-15 -0 -1 -1.2246467991473532e-16 -1 0 0 0 1.2246467991473532e-16 -1 
1 -11.4 -7.75 -9.4910126933919878e-16 -0 1 1.2246467991473532e-16 1 0 0 0 1.2246467991473532e-16 -1 
1 -11.4 -9.25 -1.1327982892113017e-15 -1 0 0 0 1 1.2246467991473532e-16 0 1.2246467991473532e-16 -1 
1 -10.6 -7.75 -9.4910126933919878e-16 1 0 0 0 -1 -1.2246467991473532e-16 0 1.2246467991473532e-16 -1 
1 -11.4 7.75 0 0 0 -1 -1 0 -0 0 1 0 
1 -11.4 7.75 0 0 0 -1 -1 0 -0 0 1 0 
1 -10.6 -9.25 -1.1327982892113017e-15 -0 -1 -1.2246467991473532e-16 -1 0 0 0 1.2246467991473532e-16 -1 
1 -6.75 -3.1000000000000001 -3.7964050773567949e-16 -0 1 1.2246467991473532e-16 1 0 0 0 1.2246467991473532e-16 -1 
1 -6.75 -3.9000000000000004 -4.7761225166746783e-16 -1 0 0 0 1 1.2246467991473532e-16 0 1.2246467991473532e-16 -1 
1 -5.25 -3.1000000000000001 -3.7964050773567949e-16 1 0 0 0 -1 -1.2246467991473532e-16 0 1.2246467991473532e-16 -1 
1 -6.75 3.1000000000000001 0 0 0 -1 -1 0 -0 0 1 0 
1 -6.75 3.1000000000000001 0 0 0 -1 -1 0 -0 0 1 0 
1 -5.25 -3.9000000000000004 -4.7761225166746783e-16 -0 -1 -1.2246467991473532e-16 -1 0 0 0 1.2246467991473532e-16 -1 
1 -3.9000000000000004 -7.75 -9.4910126933919878e-16 -0 1 1.2246467991473532e-16 1 0 0 0 1.2246467991473532e-16 -1 
1 -3.9000000000000004 -9.25 -1.1327982892113017e-15 -1 0 0 0 1 1.2246467991473532e-16 0 1.2246467991473532e-16 -1 
1 -3.1000000000000001 -7.75 -9.4910126933919878e-16 1 0 0 0 -1 -1.2246467991473532e-16 0 1.2246467991473532e-16 -1 
1 -3.9000000000000004 7.75 0 0 0 -1 -1 0 -0 0 1 0 
1 -3.9000000000000004 7.75 0 0 0 -1 -1 0 -0 0 1 0 
1 -3.1000000000000001 -9.25 -1.1327982892113017e-15 -0 -1 -1.2246467991473532e-16 -1 0 0 0 1.2246467991473532e-16 -1 
1 -1.3999999999999999 -7.75 -9.4910126933919878e-16 -0 1 1.2246467991473532e-16 1 0 0 0 1.2246467991473532e-16 -1 
1 -1.3999999999999999 -9.25 -1.1327982892113017e-15 -1 0 0 0 1 1.2246467991473532e-16 0 1.2246467991473532e-16 -1 
1 -0.59999999999999998 -7.75 -9.4910126933919878e-16 1 0 0 0 -1 -1.2246467991473532e-16 0 1.2246467991473532e-16 -1 
1 -1.3999999999999999 7.75 0 0 0 -1 -1 0 -0 0 1 0 
1 -1.3999999999999999 7.75 0 0 0 -1 -1 0 -0 0 1 0 
1 -0.59999999999999998 -9.25 -1.1327982892113017e-15 -0 -1 -1.2246467991473532e-16 -1 0 0 0 1.2246467991473532e-16 -1 
Triangulations 0

TShapes 171
Ve
1e-07
-8.9 -7.75 -9.49101269339199e-16
0 0

0101101
*
Ve
1e-07
-8.9 -7.75 4
0 0

0101101
*
Ed
 1e-07 1 1 0
1  1 0 0 4
2  1 1 0 0 4
2  2 2 0 0 4
0

0101000
+171 0 -170 0 *
Ve
1e-07
-8.1 -7.75 -9.49101269339199e-16
0 0

0101101
*
Ve
1e-07
-8.1 -7.75 4
0 0

0101101
*
Ed
 1e-07 1 1 0
1  2 0 0 4
2  3 1 0 0 4
2  4 3 0 0 4
0

0101000
+168 0 -167 0 *
Ed
 1e-07 1 1 0
1  3 0 0 0.800000000000001
2  5 1 4 0 0.800000000000001
2  6 4 5 0 0.800000000000001
0

0101000
+171 4 -168 4 *
Ed
 1e-07 1 1 0
1  4 0 0 0.800000000000001
2  7 1 8 0 0.800000000000001
2  8 5 5 0 0.800000000000001
0

0101000
+170 8 -167 8 *
Wi

0101000
+169 0 -166 0 -165 3 +164 7 *
Fa
0  1e-07 1 0

0101000
+163 0 *
Ve
1e-07
-8.1 -9.25 -1.1327982892113e-15
0 0

0101101
*
Ve
1e-07
-8.1 -9.25 4
0 0

0101101
*
Ed
 1e-07 1 1 0
1  5 0 0 4
2  9 3 0 0 4
2  10 6 0 0 4
0

0101000
+161 0 -160 0 *
Ed
 1e-07 1 1 0
1  6 0 0 1.5
2  11 3 4 0 1.5
2  12 4 5 0 1.5
0

0101000
+168 4 -161 4 *
Ed
 1e-07 1 1 0
1  7 0 0 1.5
2  13 3 8 0 1.5
2  14 5 5 0 1.5
0

0101000
+167 8 -160 8 *
Wi

0101000
+166 0 -159 0 -158 3 +157 7 *
Fa
0  1e-07 3 0

0101000
+156 0 *
Ve
1e-07
-8.9 -9.25 -1.1327982892113e-15
0 0

0101101
*
Ve
1e-07
-8.9 -9.25 4
0 0

0101101
*
Ed
 1e-07 1 1 0
1  8 0 0 4
2  15 6 0 0 4
2  16 2 0 0 4
0

0101000
+154 0 -153 0 *
Ed
 1e-07 1 1 0
1  9 0 0 0.800000000000001
2  17 6 4 0 0.800000000000001
2  18 4 5 0 0.800000000000001
0

0101000
+161 4 -154 4 *
Ed
 1e-07 1 1 0
1  10 0 0 0.800000000000001
2  19 6 8 0 0.800000000000001
2  20 5 5 0 0.800000000000001
0

0101000
+160 8 -153 8 *
Wi

0101000
+159 0 -152 0 -151 3 +150 7 *
Fa
0  1e-07 6 0

0101000
+149 0 *
Ed
 1e-07 1 1 0
1  11 0 0 1.5
2  21 2 4 0 1.5
2  22 4 5 0 1.5
0

0101000
+154 4 -171 4 *
Ed
 1e-07 1 1 0
1  12 0 0 1.5
2  23 2 8 0 1.5
2  24 5 5 0 1.5
0

0101000
+153 8 -170 8 *
Wi

0101000
+152 0 -169 0 -147 3 +146 7 *
Fa
0  1e-07 2 0

0101000
+145 0 *
Wi

0101100
+165 0 +158 0 +151 0 +147 0 *
Fa
0  1e-07 4 0

0101000
-143 1 *
Wi

0101100
+164 0 +157 0 +150 0 +146 0 *
Fa
0  1e-07 5 0

0101000
-141 1 *
Sh

0101000
-162 0 -155 0 -148 0 -144 0 +142 9 -140 10 *
So

0100000
-139 0 *
Ve
1e-07
-11.4 -7.75 -9.49101269339199e-16
0 0

0101101
*
Ve
1e-07
-11.4 -7.75 4
0 0

0101101
*
Ed
 1e-07 1 1 0
1  13 0 0 4
2  25 7 0 0 4
2  26 8 0 0 4
0

0101000
+137 0 -136 0 *
Ve
1e-07
-10.6 -7.75 -9.49101269339199e-16
0 0

0101101
*
Ve
1e-07
-10.6 -7.75 4
0 0

0101101
*
Ed
 1e-07 1 1 0
1  14 0 0 4
2  27 7 0 0 4
2  28 9 0 0 4
0

0101000
+134 0 -133 0 *
Ed
 1e-07 1 1 0
1  15 0 0 0.800000000000001
2  29 7 4 0 0.800000000000001
2  30 10 5 0 0.800000000000001
0

0101000
+137 4 -134 4 *
Ed
 1e-07 1 1 0
1  16 0 0 0.800000000000001
2  31 7 8 0 0.800000000000001
2  32 11 5 0 0.800000000000001
0

0101000
+136 8 -133 8 *
Wi

0101000
+135 0 -132 0 -131 3 +130 7 *
Fa
0  1e-07 7 0

0101000
+129 0 *
Ve
1e-07
-10.6 -9.25 -1.1327982892113e-15
0 0

0101101
*
Ve
1e-07
-10.6 -9.25 4
0 0

0101101
*
Ed
 1e-07 1 1 0
1  17 0 0 4
2  33 9 0 0 4
2  34 12 0 0 4
0

0101000
+127 0 -126 0 *
Ed
 1e-07 1 1 0
1  18 0 0 1.5
2  35 9 4 0 1.5
2  36 10 5 0 1.5
0

0101000
+134 4 -127 4 *
Ed
 1e-07 1 1 0
1  19 0 0 1.5
2  37 9 8 0 1.5
2  38 11 5 0 1.5
0

0101000
+133 8 -126 8 *
Wi

0101000
+132 0 -125 0 -124 3 +123 7 *
Fa
0  1e-07 9 0

0101000
+122 0 *
Ve
1e-07
-11.4 -9.25 -1.1327982892113e-15
0 0

0101101
*
Ve
1e-07
-11.4 -9.25 4
0 0

0101101
*
Ed
 1e-07 1 1 0
1  20 0 0 4
2  39 12 0 0 4
2  40 8 0 0 4
0

0101000
+120 0 -119 0 *
Ed
 1e-07 1 1 0
1  21 0 0 0.800000000000001
2  41 12 4 0 0.800000000000001
2  42 10 5 0 0.800000000000001
0

0101000
+127 4 -120 4 *
Ed
 1e-07 1 1 0
1  22 0 0 0.800000000000001
2  43 12 8 0 0.800000000000001
2  44 11 5 0 0.800000000000001
0

0101000
+126 8 -119 8 *
Wi

0101000
+125 0 -118 0 -117 3 +116 7 *
Fa
0  1e-07 12 0

0101000
+115 0 *
Ed
 1e-07 1 1 0
1  23 0 0 1.5
2  45 8 4 0 1.5
2  46 10 5 0 1.5
0

0101000
+120 4 -137 4 *
Ed
 1e-07 1 1 0
1  24 0 0 1.5
2  47 8 8 0 1.5
2  48 11 5 0 1.5
0

0101000
+119 8 -136 8 *
Wi

0101000
+118 0 -135 0 -113 3 +112 7 *
Fa
0  1e-07 8 0

0101000
+111 0 *
Wi

0101100
+131 0 +124 0 +117 0 +113 0 *
Fa
0  1e-07 10 0

0101000
-109 1 *
Wi

0101100
+130 0 +123 0 +116 0 +112 0 *
Fa
0  1e-07 11 0

0101000
-107 1 *
Sh

0101000
-128 0 -121 0 -114 0 -110 0 +108 9 -106 10 *
So

0100000
-105 0 *
Ve
1e-07
-6.75 -3.1 -3.79640507735679e-16
0 0

0101101
*
Ve
1e-07
-6.75 -3.1 4
0 0

0101101
*
Ed
 1e-07 1 1 0
1  25 0 0 4
2  49 13 0 0 4
2  50 14 0 0 4
0

0101000
+103 0 -102 0 *
Ve
1e-07
-5.25 -3.1 -3.79640507735679e-16
0 0

0101101
*
Ve
1e-07
-5.25 -3.1 4
0 0

0101101
*
Ed
 1e-07 1 1 0
1  26 0 0 4
2  51 13 0 0 4
2  52 15 0 0 4
0

0101000
+100 0 -99 0 *
Ed
 1e-07 1 1 0
1  27 0 0 1.5
2  53 13 4 0 1.5
2  54 16 5 0 1.5
0

0101000
+103 4 -100 4 *
Ed
 1e-07 1 1 0
1  28 0 0 1.5
2  55 13 8 0 1.5
2  56 17 5 0 1.5
0

0101000
+102 8 -99 8 *
Wi

0101000
+101 0 -98 0 -97 3 +96 7 *
Fa
0  1e-07 13 0

0101000
+95 0 *
Ve
1e-07
-5.25 -3.9 -4.77612251667468e-16
0 0

0101101
*
Ve
1e-07
-5.25 -3.9 4
0 0

0101101
*
Ed
 1e-07 1 1 0
1  29 0 0 4
2  57 15 0 0 4
2  58 18 0 0 4
0

0101000
+93 0 -92 0 *
Ed
 1e-07 1 1 0
1  30 0 0 0.8
2  59 15 4 0 0.8
2  60 16 5 0 0.8
0

0101000
+100 4 -93 4 *
Ed
 1e-07 1 1 0
1  31 0 0 0.8
2  61 15 8 0 0.8
2  62 17 5 0 0.8
0

0101000
+99 8 -92 8 *
Wi

0101000
+98 0 -91 0 -90 3 +89 7 *
Fa
0  1e-07 15 0

0101000
+88 0 *
Ve
1e-07
-6.75 -3.9 -4.77612251667468e-16
0 0

0101101
*
Ve
1e-07
-6.75 -3.9 4
0 0

0101101
*
Ed
 1e-07 1 1 0
1  32 0 0 4
2  63 18 0 0 4
2  64 14 0 0 4
0

0101000
+86 0 -85 0 *
Ed
 1e-07 1 1 0
1  33 0 0 1.5
2  65 18 4 0 1.5
2  66 16 5 0 1.5
0

0101000
+93 4 -86 4 *
Ed
 1e-07 1 1 0
1  34 0 0 1.5
2  67 18 8 0 1.5
2  68 17 5 0 1.5
0

0101000
+92 8 -85 8 *
Wi

0101000
+91 0 -84 0 -83 3 +82 7 *
Fa
0  1e-07 18 0

0101000
+81 0 *
Ed
 1e-07 1 1 0
1  35 0 0 0.8
2  69 14 4 0 0.8
2  70 16 5 0 0.8
0

0101000
+86 4 -103 4 *
Ed
 1e-07 1 1 0
1  36 0 0 0.8
2  71 14 8 0 0.8
2  72 17 5 0 0.8
0

0101000
+85 8 -102 8 *
Wi

0101000
+84 0 -101 0 -79 3 +78 7 *
Fa
0  1e-07 14 0

0101000
+77 0 *
Wi

0101100
+97 0 +90 0 +83 0 +79 0 *
Fa
0  1e-07 16 0

0101000
-75 1 *
Wi

0101100
+96 0 +89 0 +82 0 +78 0 *
Fa
0  1e-07 17 0

0101000
-73 1 *
Sh

0101000
-94 0 -87 0 -80 0 -76 0 +74 9 -72 10 *
So

0100000
-71 0 *
Ve
1e-07
-3.9 -7.75 -9.49101269339199e-16
0 0

0101101
*
Ve
1e-07
-3.9 -7.75 4
0 0

0101101
*
Ed
 1e-07 1 1 0
1  37 0 0 4
2  73 19 0 0 4
2  74 20 0 0 4
0

0101000
+69 0 -68 0 *
Ve
1e-07
-3.1 -7.75 -9.49101269339199e-16
0 0

0101101
*
Ve
1e-07
-3.1 -7.75 4
0 0

0101101
*
Ed
 1e-07 1 1 0
1  38 0 0 4
2  75 19 0 0 4
2  76 21 0 0 4
0

0101000
+66 0 -65 0 *
Ed
 1e-07 1 1 0
1  39 0 0 0.8
2  77 19 4 0 0.8
2  78 22 5 0 0.8
0

0101000
+69 4 -66 4 *
Ed
 1e-07 1 1 0
1  40 0 0 0.8
2  79 19 8 0 0.8
2  80 23 5 0 0.8
0

0101000
+68 8 -65 8 *
Wi

0101000
+67 0 -64 0 -63 3 +62 7 *
Fa
0  1e-07 19 0

0101000
+61 0 *
Ve
1e-07
-3.1 -9.25 -1.1327982892113e-15
0 0

0101101
*
Ve
1e-07
-3.1 -9.25 4
0 0

0101101
*
Ed
 1e-07 1 1 0
1  41 0 0 4
2  81 21 0 0 4
2  82 24 0 0 4
0

0101000
+59 0 -58 0 *
Ed
 1e-07 1 1 0
1  42 0 0 1.5
2  83 21 4 0 1.5
2  84 22 5 0 1.5
0

0101000
+66 4 -59 4 *
Ed
 1e-07 1 1 0
1  43 0 0 1.5
2  85 21 8 0 1.5
2  86 23 5 0 1.5
0

0101000
+65 8 -58 8 *
Wi

0101000
+64 0 -57 0 -56 3 +55 7 *
Fa
0  1e-07 21 0

0101000
+54 0 *
Ve
1e-07
-3.9 -9.25 -1.1327982892113e-15
0 0

0101101
*
Ve
1e-07
-3.9 -9.25 4
0 0

0101101
*
Ed
 1e-07 1 1 0
1  44 0 0 4
2  87 24 0 0 4
2  88 20 0 0 4
0

0101000
+52 0 -51 0 *
Ed
 1e-07 1 1 0
1  45 0 0 0.8
2  89 24 4 0 0.8
2  90 22 5 0 0.8
0

0101000
+59 4 -52 4 *
Ed
 1e-07 1 1 0
1  46 0 0 0.8
2  91 24 8 0 0.8
2  92 23 5 0 0.8
0

0101000
+58 8 -51 8 *
Wi

0101000
+57 0 -50 0 -49 3 +48 7 *
Fa
0  1e-07 24 0

0101000
+47 0 *
Ed
 1e-07 1 1 0
1  47 0 0 1.5
2  93 20 4 0 1.5
2  94 22 5 0 1.5
0

0101000
+52 4 -69 4 *
Ed
 1e-07 1 1 0
1  48 0 0 1.5
2  95 20 8 0 1.5
2  96 23 5 0 1.5
0

0101000
+51 8 -68 8 *
Wi

0101000
+50 0 -67 0 -45 3 +44 7 *
Fa
0  1e-07 20 0

0101000
+43 0 *
Wi

0101100
+63 0 +56 0 +49 0 +45 0 *
Fa
0  1e-07 22 0

0101000
-41 1 *
Wi

0101100
+62 0 +55 0 +48 0 +44 0 *
Fa
0  1e-07 23 0

0101000
-39 1 *
Sh

0101000
-60 0 -53 0 -46 0 -42 0 +40 9 -38 10 *
So

0100000
-37 0 *
Ve
1e-07
-1.4 -7.75 -9.49101269339199e-16
0 0

0101101
*
Ve
1e-07
-1.4 -7.75 4
0 0

0101101
*
Ed
 1e-07 1 1 0
1  49 0 0 4
2  97 25 0 0 4
2  98 26 0 0 4
0

0101000
+35 0 -34 0 *
Ve
1e-07
-0.6 -7.75 -9.49101269339199e-16
0 0

0101101
*
Ve
1e-07
-0.6 -7.75 4
0 0

0101101
*
Ed
 1e-07 1 1 0
1  50 0 0 4
2  99 25 0 0 4
2  100 27 0 0 4
0

0101000
+32 0 -31 0 *
Ed
 1e-07 1 1 0
1  51 0 0 0.8
2  101 25 4 0 0.8
2  102 28 5 0 0.8
0

0101000
+35 4 -32 4 *
Ed
 1e-07 1 1 0
1  52 0 0 0.8
2  103 25 8 0 0.8
2  104 29 5 0 0.8
0

0101000
+34 8 -31 8 *
Wi

0101000
+33 0 -30 0 -29 3 +28 7 *
Fa
0  1e-07 25 0

0101000
+27 0 *
Ve
1e-07
-0.6 -9.25 -1.1327982892113e-15
0 0

0101101
*
Ve
1e-07
-0.6 -9.25 4
0 0

0101101
*
Ed
 1e-07 1 1 0
1  53 0 0 4
2  105 27 0 0 4
2  106 30 0 0 4
0

0101000
+25 0 -24 0 *
Ed
 1e-07 1 1 0
1  54 0 0 1.5
2  107 27 4 0 1.5
2  108 28 5 0 1.5
0

0101000
+32 4 -25 4 *
Ed
 1e-07 1 1 0
1  55 0 0 1.5
2  109 27 8 0 1.5
2  110 29 5 0 1.5
0

0101000
+31 8 -24 8 *
Wi

0101000
+30 0 -23 0 -22 3 +21 7 *
Fa
0  1e-07 27 0

0101000
+20 0 *
Ve
1e-07
-1.4 -9.25 -1.1327982892113e-15
0 0

0101101
*
Ve
1e-07
-1.4 -9.25 4
0 0

0101101
*
Ed
 1e-07 1 1 0
1  56 0 0 4
2  111 30 0 0 4
2  112 26 0 0 4
0

0101000
+18 0 -17 0 *
Ed
 1e-07 1 1 0
1  57 0 0 0.8
2  113 30 4 0 0.8
2  114 28 5 0 0.8
0

0101000
+25 4 -18 4 *
Ed
 1e-07 1 1 0
1  58 0 0 0.8
2  115 30 8 0 0.8
2  116 29 5 0 0.8
0

0101000
+24 8 -17 8 *
Wi

0101000
+23 0 -16 0 -15 3 +14 7 *
Fa
0  1e-07 30 0

0101000
+13 0 *
Ed
 1e-07 1 1 0
1  59 0 0 1.5
2  117 26 4 0 1.5
2  118 28 5 0 1.5
0

0101000
+18 4 -35 4 *
Ed
 1e-07 1 1 0
1  60 0 0 1.5
2  119 26 8 0 1.5
2  120 29 5 0 1.5
0

0101000
+17 8 -34 8 *
Wi

0101000
+16 0 -33 0 -11 3 +10 7 *
Fa
0  1e-07 26 0

0101000
+9 0 *
Wi

0101100
+29 0 +22 0 +15 0 +11 0 *
Fa
0  1e-07 28 0

0101000
-7 1 *
Wi

0101100
+28 0 +21 0 +14 0 +10 0 *
Fa
0  1e-07 29 0

0101000
-5 1 *
Sh

0101000
-26 0 -19 0 -12 0 -8 0 +6 9 -4 10 *
So

0100000
-3 0 *
Co

1100000
+138 0 +104 0 +70 0 +36 0 +2 0 *

+1 0 